<svg width="16" height="10" viewBox="0 0 16 10" fill="none" xmlns="http://www.w3.org/2000/svg">
<path d="M15.56 5.00015V9.44446C15.56 9.5918 15.5015 9.7331 15.3972 9.83729C15.293 9.94147 15.1517 10 15.0043 10H10.5587C10.4113 10 10.2699 9.94147 10.1657 9.83729C10.0615 9.7331 10.003 9.5918 10.003 9.44446C10.003 9.29712 10.0615 9.15582 10.1657 9.05164C10.2699 8.94745 10.4113 8.88892 10.5587 8.88892H13.663L8.33586 3.56339L5.9505 5.94874C5.89889 6.00039 5.8376 6.04136 5.77014 6.06932C5.70268 6.09728 5.63037 6.11167 5.55734 6.11167C5.48431 6.11167 5.412 6.09728 5.34454 6.06932C5.27708 6.04136 5.21579 6.00039 5.16418 5.94874L0.162852 0.948891C0.0585797 0.844649 -1.55378e-09 0.703267 0 0.555847C1.55378e-09 0.408427 0.0585797 0.267045 0.162852 0.162804C0.267125 0.0585623 0.408549 1.55332e-09 0.556012 0C0.703476 -1.55332e-09 0.8449 0.0585623 0.949172 0.162804L5.55734 4.7703L7.9427 2.38496C7.99431 2.33331 8.05559 2.29233 8.12306 2.26437C8.19052 2.23642 8.26283 2.22203 8.33586 2.22203C8.40889 2.22203 8.4812 2.23642 8.54866 2.26437C8.61612 2.29233 8.67741 2.33331 8.72902 2.38496L14.4486 8.10353V5.00015C14.4486 4.85282 14.5071 4.71151 14.6114 4.60733C14.7156 4.50315 14.8569 4.44462 15.0043 4.44462C15.1517 4.44462 15.293 4.50315 15.3972 4.60733C15.5015 4.71151 15.56 4.85282 15.56 5.00015Z" fill="#EC817D"/>
</svg>
