<svg width="19" height="19" viewBox="0 0 19 19" fill="none" xmlns="http://www.w3.org/2000/svg">
<path d="M0.75 4.64113C0.75 2.4965 2.52646 0.75 4.70897 0.75H9.04994C11.228 0.75 13 2.49125 13 4.63237V14.3589C13 16.5044 11.2235 18.25 9.04014 18.25H4.70095C2.52201 18.25 0.75 16.5087 0.75 14.3676V13.5451V4.64113Z" stroke="white"/>
<path d="M18.0566 9.02304L15.5665 6.47766C15.3091 6.21516 14.895 6.21516 14.6385 6.47941C14.3828 6.74366 14.3837 7.16979 14.6402 7.43229L16.0045 8.82616H14.6964H7.35491C6.99273 8.82616 6.69873 9.12804 6.69873 9.49991C6.69873 9.87266 6.99273 10.1737 7.35491 10.1737H16.0045L14.6402 11.5675C14.3837 11.83 14.3828 12.2562 14.6385 12.5204C14.7672 12.6525 14.935 12.719 15.1038 12.719C15.2708 12.719 15.4387 12.6525 15.5665 12.5222L18.0566 9.97766C18.1801 9.85079 18.25 9.67929 18.25 9.49991C18.25 9.32141 18.1801 9.14991 18.0566 9.02304Z" fill="white"/>
</svg>
