<svg width="26" height="39" viewBox="0 0 26 39" fill="none" xmlns="http://www.w3.org/2000/svg">
<path d="M16.7156 8.61304H22.0303V37.4553H16.7156V35.0215C15.1514 37.0265 12.9272 38.0289 10.0429 38.0289C8.70312 38.0405 7.37637 37.7647 6.15211 37.2202C4.92785 36.6758 3.83453 35.8752 2.9458 34.8725C0.981934 32.7703 0 30.195 0 27.1466C0 24.0982 0.981934 21.524 2.9458 19.424C3.83584 18.4217 4.93048 17.6218 6.1559 17.0784C7.38131 16.535 8.709 16.2608 10.0494 16.2741C12.9337 16.2741 15.1579 17.2765 16.722 19.2814L16.7156 8.61304ZM6.93511 31.3271C7.47108 31.8626 8.11103 32.2826 8.81553 32.5613C9.52002 32.84 10.2741 32.9714 11.0314 32.9475C11.7862 32.9715 12.5379 32.84 13.2397 32.5613C13.9416 32.2825 14.5787 31.8624 15.1114 31.3271C16.1444 30.1797 16.716 28.6905 16.716 27.1466C16.716 25.6027 16.1444 24.1135 15.1114 22.9661C14.5787 22.4308 13.9416 22.0107 13.2397 21.732C12.5379 21.4532 11.7862 21.3218 11.0314 21.3458C10.2742 21.3224 9.52026 21.4541 8.81585 21.7328C8.11143 22.0114 7.47142 22.4311 6.93511 22.9661C5.88844 24.1068 5.30773 25.5985 5.30773 27.1466C5.30773 28.6947 5.88844 30.1865 6.93511 31.3271Z" fill="#0070DF"/>
<path d="M19.3432 0L12.6836 9.68322H25.9996L19.3432 0Z" fill="#0070DF"/>
</svg>
