<svg width="21" height="22" viewBox="0 0 21 22" fill="none" xmlns="http://www.w3.org/2000/svg">
<mask id="mask0_1_1845" style="mask-type:luminance" maskUnits="userSpaceOnUse" x="0" y="0" width="21" height="22">
<path d="M0 0H21V21.1542H0V0Z" fill="white"/>
</mask>
<g mask="url(#mask0_1_1845)">
<path fill-rule="evenodd" clip-rule="evenodd" d="M20.7941 19.6806L14.2283 13.0665C15.5041 11.4579 16.1199 9.41795 15.9494 7.36618C15.7791 5.31433 14.8351 3.40616 13.3116 2.03322C11.788 0.660568 9.80067 -0.0724252 7.7574 -0.0151948C5.71413 0.042212 3.77023 0.885418 2.32494 2.34141C0.879561 3.79741 0.042496 5.75558 -0.0144838 7.81378C-0.0713094 9.87206 0.656352 11.874 2.01899 13.4088C3.3818 14.9435 5.27609 15.8944 7.31307 16.066C9.34996 16.2377 11.375 15.6174 12.9719 14.3322L19.5377 20.9462C19.6696 21.083 19.8506 21.1602 20.04 21.1602C20.2292 21.1602 20.4104 21.083 20.5421 20.9462L20.7942 20.6923C20.93 20.5596 21.0067 20.3771 21.0067 20.1865C21.0067 19.9957 20.93 19.8133 20.7942 19.6805L20.7941 19.6806ZM7.35067 14.2758C5.78416 14.1128 4.33749 13.357 3.30277 12.161C2.26821 10.9651 1.72275 9.41812 1.77682 7.83238C1.83071 6.24698 2.48021 4.74114 3.59375 3.61925C4.7073 2.49753 6.20215 1.84326 7.77616 1.78897C9.35017 1.73451 10.8859 2.28397 12.0732 3.32613C13.2605 4.36845 14.0108 5.82575 14.1726 7.40376C14.3568 9.277 13.6975 11.1348 12.3762 12.4659C11.0549 13.797 9.21062 14.461 7.35096 14.2755L7.35067 14.2758Z" fill="white"/>
</g>
</svg>
